<svg width="165" height="63" viewBox="0 0 165 63" fill="none" xmlns="http://www.w3.org/2000/svg">
<g clip-path="url(#clip0_576_12)">
<path d="M39 8H15C8.92487 8 4 12.9249 4 19V43C4 49.0751 8.92487 54 15 54H39C45.0751 54 50 49.0751 50 43V19C50 12.9249 45.0751 8 39 8Z" stroke="url(#paint0_linear_576_12)" stroke-width="8"/>
</g>
<path d="M77.778 14.92V46H71.898V14.92H77.778ZM105.553 22.732V46H99.6315V43.06C98.8755 44.068 97.8815 44.866 96.6495 45.454C95.4455 46.014 94.1295 46.294 92.7015 46.294C90.8815 46.294 89.2715 45.916 87.8715 45.16C86.4715 44.376 85.3655 43.242 84.5535 41.758C83.7695 40.246 83.3775 38.454 83.3775 36.382V22.732H89.2575V35.542C89.2575 37.39 89.7195 38.818 90.6435 39.826C91.5675 40.806 92.8275 41.296 94.4235 41.296C96.0475 41.296 97.3215 40.806 98.2455 39.826C99.1695 38.818 99.6315 37.39 99.6315 35.542V22.732H105.553ZM140.251 22.396C143.107 22.396 145.403 23.278 147.139 25.042C148.903 26.778 149.785 29.214 149.785 32.35V46H143.905V33.148C143.905 31.328 143.443 29.942 142.519 28.99C141.595 28.01 140.335 27.52 138.739 27.52C137.143 27.52 135.869 28.01 134.917 28.99C133.993 29.942 133.531 31.328 133.531 33.148V46H127.651V33.148C127.651 31.328 127.189 29.942 126.265 28.99C125.341 28.01 124.081 27.52 122.485 27.52C120.861 27.52 119.573 28.01 118.621 28.99C117.697 29.942 117.235 31.328 117.235 33.148V46H111.355V22.732H117.235V25.546C117.991 24.566 118.957 23.796 120.133 23.236C121.337 22.676 122.653 22.396 124.081 22.396C125.901 22.396 127.525 22.788 128.953 23.572C130.381 24.328 131.487 25.42 132.271 26.848C133.027 25.504 134.119 24.426 135.547 23.614C137.003 22.802 138.571 22.396 140.251 22.396ZM158.347 19.96C157.311 19.96 156.443 19.638 155.743 18.994C155.071 18.322 154.735 17.496 154.735 16.516C154.735 15.536 155.071 14.724 155.743 14.08C156.443 13.408 157.311 13.072 158.347 13.072C159.383 13.072 160.237 13.408 160.909 14.08C161.609 14.724 161.959 15.536 161.959 16.516C161.959 17.496 161.609 18.322 160.909 18.994C160.237 19.638 159.383 19.96 158.347 19.96ZM161.245 22.732V46H155.365V22.732H161.245Z" fill="#0A0A0A"/>
<defs>
<linearGradient id="paint0_linear_576_12" x1="27" y1="4" x2="27" y2="58" gradientUnits="userSpaceOnUse">
<stop stop-color="#8276FF"/>
<stop offset="1" stop-color="#4B4EE7"/>
</linearGradient>
<clipPath id="clip0_576_12">
<rect width="54" height="54" fill="white" transform="translate(0 4)"/>
</clipPath>
</defs>
</svg>
