<svg width="187" height="60" viewBox="0 0 187 60" fill="none" xmlns="http://www.w3.org/2000/svg">
<mask id="mask0_585_19" style="mask-type:luminance" maskUnits="userSpaceOnUse" x="0" y="3" width="54" height="54">
<path d="M54 3H0V57H54V3Z" fill="white"/>
</mask>
<g mask="url(#mask0_585_19)">
<path d="M39 7H15C8.92487 7 4 11.9249 4 18V42C4 48.0751 8.92487 53 15 53H39C45.0751 53 50 48.0751 50 42V18C50 11.9249 45.0751 7 39 7Z" stroke="url(#paint0_linear_585_19)" stroke-width="8"/>
</g>
<path d="M71.32 32.92C71.32 30.6267 71.7867 28.6267 72.72 26.92C73.6533 25.1867 74.9467 23.8533 76.6 22.92C78.2533 21.96 80.1467 21.48 82.28 21.48C85.0267 21.48 87.2933 22.1733 89.08 23.56C90.8933 24.92 92.1067 26.84 92.72 29.32H86.68C86.36 28.36 85.8133 27.6133 85.04 27.08C84.2933 26.52 83.36 26.24 82.24 26.24C80.64 26.24 79.3733 26.8267 78.44 28C77.5067 29.1467 77.04 30.7867 77.04 32.92C77.04 35.0267 77.5067 36.6667 78.44 37.84C79.3733 38.9867 80.64 39.56 82.24 39.56C84.5067 39.56 85.9867 38.5467 86.68 36.52H92.72C92.1067 38.92 90.8933 40.8267 89.08 42.24C87.2667 43.6533 85 44.36 82.28 44.36C80.1467 44.36 78.2533 43.8933 76.6 42.96C74.9467 42 73.6533 40.6667 72.72 38.96C71.7867 37.2267 71.32 35.2133 71.32 32.92ZM95.3825 32.84C95.3825 30.6 95.8225 28.6133 96.7025 26.88C97.6092 25.1467 98.8225 23.8133 100.343 22.88C101.889 21.9467 103.609 21.48 105.503 21.48C107.156 21.48 108.596 21.8133 109.823 22.48C111.076 23.1467 112.076 23.9867 112.823 25V21.84H118.463V44H112.823V40.76C112.103 41.8 111.103 42.6667 109.823 43.36C108.569 44.0267 107.116 44.36 105.463 44.36C103.596 44.36 101.889 43.88 100.343 42.92C98.8225 41.96 97.6092 40.6133 96.7025 38.88C95.8225 37.12 95.3825 35.1067 95.3825 32.84ZM112.823 32.92C112.823 31.56 112.556 30.4 112.023 29.44C111.489 28.4533 110.769 27.7067 109.863 27.2C108.956 26.6667 107.983 26.4 106.943 26.4C105.903 26.4 104.943 26.6533 104.062 27.16C103.183 27.6667 102.463 28.4133 101.903 29.4C101.369 30.36 101.103 31.5067 101.103 32.84C101.103 34.1733 101.369 35.3467 101.903 36.36C102.463 37.3467 103.183 38.1067 104.062 38.64C104.969 39.1733 105.929 39.44 106.943 39.44C107.983 39.44 108.956 39.1867 109.863 38.68C110.769 38.1467 111.489 37.4 112.023 36.44C112.556 35.4533 112.823 34.28 112.823 32.92ZM129.532 14.4V44H123.932V14.4H129.532ZM137.905 19.2C136.918 19.2 136.091 18.8933 135.425 18.28C134.785 17.64 134.465 16.8533 134.465 15.92C134.465 14.9867 134.785 14.2133 135.425 13.6C136.091 12.96 136.918 12.64 137.905 12.64C138.891 12.64 139.705 12.96 140.345 13.6C141.011 14.2133 141.345 14.9867 141.345 15.92C141.345 16.8533 141.011 17.64 140.345 18.28C139.705 18.8933 138.891 19.2 137.905 19.2ZM140.665 21.84V44H135.065V21.84H140.665ZM151.798 25.28C152.518 24.1067 153.451 23.1867 154.598 22.52C155.771 21.8533 157.104 21.52 158.598 21.52V27.4H157.118C155.358 27.4 154.024 27.8133 153.118 28.64C152.238 29.4667 151.798 30.9067 151.798 32.96V44H146.198V21.84H151.798V25.28ZM160.929 32.84C160.929 30.6 161.369 28.6133 162.249 26.88C163.156 25.1467 164.369 23.8133 165.889 22.88C167.436 21.9467 169.156 21.48 171.049 21.48C172.703 21.48 174.143 21.8133 175.369 22.48C176.623 23.1467 177.623 23.9867 178.369 25V21.84H184.009V44H178.369V40.76C177.649 41.8 176.649 42.6667 175.369 43.36C174.116 44.0267 172.663 44.36 171.009 44.36C169.143 44.36 167.436 43.88 165.889 42.92C164.369 41.96 163.156 40.6133 162.249 38.88C161.369 37.12 160.929 35.1067 160.929 32.84ZM178.369 32.92C178.369 31.56 178.103 30.4 177.569 29.44C177.036 28.4533 176.316 27.7067 175.409 27.2C174.503 26.6667 173.529 26.4 172.489 26.4C171.449 26.4 170.489 26.6533 169.609 27.16C168.729 27.6667 168.009 28.4133 167.449 29.4C166.916 30.36 166.649 31.5067 166.649 32.84C166.649 34.1733 166.916 35.3467 167.449 36.36C168.009 37.3467 168.729 38.1067 169.609 38.64C170.516 39.1733 171.476 39.44 172.489 39.44C173.529 39.44 174.503 39.1867 175.409 38.68C176.316 38.1467 177.036 37.4 177.569 36.44C178.103 35.4533 178.369 34.28 178.369 32.92Z" fill="#0B0B0B"/>
<defs>
<linearGradient id="paint0_linear_585_19" x1="27" y1="3" x2="27" y2="57" gradientUnits="userSpaceOnUse">
<stop stop-color="#8276FF"/>
<stop offset="1" stop-color="#4B4EE7"/>
</linearGradient>
</defs>
</svg>
